<svg width="60" height="60" viewBox="0 0 60 60" fill="none" xmlns="http://www.w3.org/2000/svg">
<g id="Iconly/Light/Chat">
<g id="Chat">
<path id="Stroke 4" fill-rule="evenodd" clip-rule="evenodd" d="M47.6784 47.6747C40.038 55.3159 28.7244 56.9667 19.466 52.685C18.0993 52.1348 16.9787 51.69 15.9134 51.69C12.9462 51.7076 9.25291 54.5847 7.3334 52.6675C5.41388 50.7477 8.29316 47.0515 8.29316 44.0664C8.29316 43.001 7.86604 41.9004 7.31581 40.531C3.03208 31.2741 4.68527 19.9567 12.3256 12.318C22.079 2.56108 37.925 2.56108 47.6784 12.3155C57.4493 22.0875 57.4317 37.9202 47.6784 47.6747Z" fill="#BEC0CA" stroke="#8B8D97" stroke-width="1.5" stroke-linecap="round" stroke-linejoin="round"/>
<path id="Stroke 11" d="M39.8481 31.0325H39.8706" stroke="#8B8D97" stroke-width="2" stroke-linecap="round" stroke-linejoin="round"/>
<path id="Stroke 13" d="M29.8266 31.0325H29.8491" stroke="#8B8D97" stroke-width="2" stroke-linecap="round" stroke-linejoin="round"/>
<path id="Stroke 15" d="M19.8032 31.0325H19.8257" stroke="#8B8D97" stroke-width="2" stroke-linecap="round" stroke-linejoin="round"/>
</g>
</g>
</svg>
