<svg width="21" height="20" viewBox="0 0 21 20" fill="none" xmlns="http://www.w3.org/2000/svg">
<g id="&#240;&#159;&#166;&#134; icon &#34;remove red eye&#34;">
<path id="Vector" d="M10.5007 3.75C6.33398 3.75 2.77565 6.34167 1.33398 10C2.77565 13.6583 6.33398 16.25 10.5007 16.25C14.6673 16.25 18.2257 13.6583 19.6673 10C18.2257 6.34167 14.6673 3.75 10.5007 3.75ZM10.5007 14.1667C8.20065 14.1667 6.33398 12.3 6.33398 10C6.33398 7.7 8.20065 5.83333 10.5007 5.83333C12.8007 5.83333 14.6673 7.7 14.6673 10C14.6673 12.3 12.8007 14.1667 10.5007 14.1667ZM10.5007 7.5C9.11732 7.5 8.00065 8.61667 8.00065 10C8.00065 11.3833 9.11732 12.5 10.5007 12.5C11.884 12.5 13.0007 11.3833 13.0007 10C13.0007 8.61667 11.884 7.5 10.5007 7.5Z" fill="white"/>
</g>
</svg>
