<svg width="23" height="20" viewBox="0 0 23 20" fill="none" xmlns="http://www.w3.org/2000/svg">
<g id="&#240;&#159;&#166;&#134; icon &#34;warning amber&#34;">
<path id="Vector" d="M11.2084 2.34896L20.0634 17.6481H2.35352L11.2084 2.34896ZM0.319119 16.4721C-0.586363 18.0362 0.54255 20 2.35352 20H20.0634C21.8743 20 23.0032 18.0362 22.0977 16.4721L13.2428 1.17301C12.3373 -0.391004 10.0795 -0.391004 9.17404 1.17301L0.319119 16.4721ZM10.0325 8.24048V10.5924C10.0325 11.2392 10.5617 11.7683 11.2084 11.7683C11.8552 11.7683 12.3844 11.2392 12.3844 10.5924V8.24048C12.3844 7.59371 11.8552 7.06453 11.2084 7.06453C10.5617 7.06453 10.0325 7.59371 10.0325 8.24048ZM10.0325 14.1202H12.3844V16.4721H10.0325V14.1202Z" fill="black"/>
</g>
</svg>
