<svg width="20" height="20" viewBox="0 0 20 20" fill="none" xmlns="http://www.w3.org/2000/svg">
<g id="Iconly/Bulk/Send">
<g id="Send">
<path id="Fill 1" d="M17.8555 2.14866C17.4389 1.72283 16.8222 1.56533 16.2472 1.732L2.83887 5.60616C2.2322 5.7745 1.8022 6.25533 1.68637 6.86533C1.56803 7.487 1.98137 8.277 2.52137 8.607L6.71387 11.167C7.14387 11.4303 7.69887 11.3645 8.0547 11.0078L12.8555 6.207C13.0972 5.95616 13.4972 5.95616 13.7389 6.207C13.9805 6.44783 13.9805 6.84033 13.7389 7.09033L8.9297 11.8912C8.57303 12.2478 8.50637 12.8012 8.76887 13.232L11.3305 17.4403C11.6305 17.9395 12.1472 18.2237 12.7139 18.2237C12.7805 18.2237 12.8555 18.2237 12.9222 18.2145C13.5722 18.132 14.0889 17.6895 14.2805 17.0645L18.2555 3.757C18.4305 3.19033 18.2722 2.57366 17.8555 2.14866" fill="#1C1D22"/>
<path id="Combined Shape" opacity="0.4" fill-rule="evenodd" clip-rule="evenodd" d="M2.5076 14.0066C2.3476 14.0066 2.1876 13.9458 2.06594 13.8233C1.82177 13.5791 1.82177 13.1841 2.06594 12.94L3.20344 11.8016C3.4476 11.5583 3.84344 11.5583 4.0876 11.8016C4.33094 12.0458 4.33094 12.4416 4.0876 12.6858L2.94927 13.8233C2.8276 13.9458 2.6676 14.0066 2.5076 14.0066ZM5.64194 15.0003C5.48194 15.0003 5.32194 14.9395 5.20027 14.817C4.9561 14.5728 4.9561 14.1778 5.20027 13.9336L6.33777 12.7953C6.58194 12.552 6.97777 12.552 7.22194 12.7953C7.46527 13.0395 7.46527 13.4353 7.22194 13.6795L6.0836 14.817C5.96194 14.9395 5.80194 15.0003 5.64194 15.0003ZM5.85335 17.9736C5.97502 18.0961 6.13502 18.157 6.29502 18.157C6.45502 18.157 6.61502 18.0961 6.73669 17.9736L7.87502 16.8361C8.11835 16.592 8.11835 16.1961 7.87502 15.952C7.63085 15.7086 7.23502 15.7086 6.99085 15.952L5.85335 17.0903C5.60919 17.3345 5.60919 17.7295 5.85335 17.9736Z" fill="#1C1D22"/>
</g>
</g>
</svg>
